<?xml version="1.0" encoding="UTF-8" standalone="no"?>
<!-- Created with Inkscape (http://www.inkscape.org/) -->

<svg
   xmlns:dc="http://purl.org/dc/elements/1.1/"
   xmlns:cc="http://creativecommons.org/ns#"
   xmlns:rdf="http://www.w3.org/1999/02/22-rdf-syntax-ns#"
   xmlns:svg="http://www.w3.org/2000/svg"
   xmlns="http://www.w3.org/2000/svg"
   xmlns:sodipodi="http://sodipodi.sourceforge.net/DTD/sodipodi-0.dtd"
   xmlns:inkscape="http://www.inkscape.org/namespaces/inkscape"
   id="svg4136"
   version="1.1"
   inkscape:version="0.91 r13725"
   width="500"
   height="500"
   viewBox="0 0 500 500"
   sodipodi:docname="logo_v3.svg"
   inkscape:export-filename="C:\Users\Graci\Desktop\startbootstrap-business-casual-1.0.3\img\logo_v3.png"
   inkscape:export-xdpi="90"
   inkscape:export-ydpi="90">
  <metadata
     id="metadata4142">
    <rdf:RDF>
      <cc:Work
         rdf:about="">
        <dc:format>image/svg+xml</dc:format>
        <dc:type
           rdf:resource="http://purl.org/dc/dcmitype/StillImage" />
        <dc:title></dc:title>
      </cc:Work>
    </rdf:RDF>
  </metadata>
  <defs
     id="defs4140" />
  <sodipodi:namedview
     pagecolor="#ffffff"
     bordercolor="#666666"
     borderopacity="1"
     objecttolerance="10"
     gridtolerance="10"
     guidetolerance="10"
     inkscape:pageopacity="0"
     inkscape:pageshadow="2"
     inkscape:window-width="1366"
     inkscape:window-height="706"
     id="namedview4138"
     showgrid="false"
     inkscape:zoom="1.4142136"
     inkscape:cx="229.93817"
     inkscape:cy="281.11124"
     inkscape:window-x="-8"
     inkscape:window-y="-8"
     inkscape:window-maximized="1"
     inkscape:current-layer="layer9" />
  <g
     inkscape:groupmode="layer"
     id="layer1"
     inkscape:label="Picture"
     style="display:inline" />
  <g
     inkscape:groupmode="layer"
     id="layer9"
     inkscape:label="background">
    <rect
       style="opacity:0.89899998;fill:#ffffff;fill-opacity:0;fill-rule:nonzero;stroke:none;stroke-width:0.30000001;stroke-miterlimit:4;stroke-dasharray:none;stroke-opacity:1"
       id="rect4273"
       width="361.33157"
       height="168.99852"
       x="68.589355"
       y="150.68925"
       inkscape:export-filename="C:\Users\Graci\Desktop\startbootstrap-business-casual-1.0.3\img\logo_v3.png"
       inkscape:export-xdpi="90"
       inkscape:export-ydpi="90" />
    <path
       style="opacity:0.89899998;fill:#74000e;fill-opacity:0;fill-rule:nonzero;stroke:#000000;stroke-width:0.21213204;stroke-miterlimit:4;stroke-dasharray:none;stroke-opacity:1"
       d="m 68.859249,235.29364 0,-84.14571 180.312231,0 180.31223,0 0,84.14571 0,84.14571 -180.31223,0 -180.312231,0 0,-84.14571 z M 267.90981,313.4259 c 38.48546,-7.98356 66.01699,-38.34094 68.01205,-74.99282 1.68756,-31.00269 -15.87007,-60.20105 -45.03108,-74.88675 -13.95502,-7.02784 -23.6603,-9.22365 -40.65864,-9.19895 -16.96398,0.0246 -28.64024,2.80814 -41.91641,9.99242 -20.44319,11.06264 -34.9112,29.03471 -40.97021,50.89292 -1.75407,6.32789 -1.93615,8.10162 -1.95043,19.00026 -0.0137,10.42016 0.20751,12.86822 1.66105,18.38477 3.79816,14.41499 11.02849,26.98267 21.42861,37.24698 14.31807,14.13111 30.87437,21.88044 53.26211,24.92982 4.45401,0.60667 20.75031,-0.24582 26.16295,-1.36865 z m 101.80928,-31.24387 c 18.90579,-11.43317 30.97134,-20.83193 49.50032,-38.5595 l 8.47402,-8.10752 -10.24179,-9.93097 c -18.27276,-17.71821 -28.19631,-25.44371 -47.71846,-37.14896 -8.31307,-4.98442 -27.25951,-15.35889 -28.05833,-15.36385 -0.26465,-0.002 1.20749,3.57674 3.27141,7.95196 10.28325,21.79897 15.1547,41.56039 14.3371,58.15954 -0.67976,13.80049 -6.30331,34.0396 -14.02772,50.48565 -1.89925,4.04368 -3.45317,7.49223 -3.45317,7.66345 0,0.60527 18.16419,-9.25207 27.91662,-15.1498 z M 157.9547,296.42326 c 0,-0.21377 -0.48648,-1.32942 -1.08107,-2.47923 -4.53153,-8.76302 -12.54914,-32.00826 -14.81723,-42.9592 -3.87116,-18.69105 -0.39197,-37.62247 12.67131,-68.9487 2.24089,-5.37375 3.94041,-9.90438 3.77673,-10.06807 -0.45288,-0.45288 -22.00714,11.6896 -31.9153,17.9793 -10.39238,6.59709 -17.59736,11.83663 -26.26364,19.0992 -6.966512,5.83812 -26.963783,25.18365 -27.988764,27.07656 -0.520183,0.96067 1.411108,3.00237 10.274504,10.86186 6.003305,5.32335 13.876803,12.05004 17.49666,14.94818 10.33453,8.2741 34.58706,23.41199 51.32145,32.03372 5.41522,2.78999 6.52535,3.20788 6.52535,2.45638 z"
       id="path4292"
       inkscape:connector-curvature="0" />
  </g>
  <g
     inkscape:groupmode="layer"
     id="layer2"
     inkscape:label="brown_circle"
     style="display:inline">
    <ellipse
       style="opacity:0.95999995;fill:#2b1100;fill-opacity:0.86033517;stroke:none;stroke-width:0.30000001;stroke-miterlimit:4;stroke-dasharray:none;stroke-opacity:1"
       id="path4171"
       cx="250.5"
       cy="234.5"
       rx="85.5"
       ry="80.5" />
  </g>
  <g
     inkscape:groupmode="layer"
     id="layer6"
     inkscape:label="brown_circle 2"
     style="display:inline">
    <ellipse
       style="opacity:0.95999995;fill:#2b1100;fill-opacity:0.83798888;stroke:none;stroke-width:0.30000001;stroke-miterlimit:4;stroke-dasharray:none;stroke-opacity:1"
       id="path4171-1"
       cx="249.93817"
       cy="235.03696"
       rx="76.307617"
       ry="72.990608" />
    <ellipse
       style="display:inline;opacity:0.95999995;fill:#552200;fill-opacity:0.47486034;stroke:none;stroke-width:0.30000001;stroke-miterlimit:4;stroke-dasharray:none;stroke-opacity:1"
       id="path4171-1-0"
       cx="250.66936"
       cy="234.95625"
       rx="63.226143"
       ry="61.676899" />
  </g>
  <g
     inkscape:groupmode="layer"
     id="layer7"
     inkscape:label="black_circle "
     style="display:inline">
    <ellipse
       style="opacity:0.89899998;fill:#000000;fill-opacity:0.79888264;fill-rule:nonzero;stroke:none;stroke-width:0.30000001;stroke-miterlimit:4;stroke-dasharray:none;stroke-opacity:1"
       id="path4171-1-9"
       cx="250.66936"
       cy="234.83495"
       rx="46.962685"
       ry="46.827656" />
  </g>
  <g
     inkscape:groupmode="layer"
     id="layer8"
     inkscape:label="center">
    <path
       style="fill:#ffffff;fill-rule:evenodd;stroke:none;stroke-width:1px;stroke-linecap:butt;stroke-linejoin:miter;stroke-opacity:1;fill-opacity:1"
       d="m 235.46656,212.20754 0.70711,46.66905 41.01219,-23.33452 z"
       id="path4270"
       inkscape:connector-curvature="0"
       sodipodi:nodetypes="cccc" />
  </g>
  <g
     inkscape:groupmode="layer"
     id="layer4"
     inkscape:label="left_side">
    <path
       style="fill:#ffffff;fill-opacity:1;fill-rule:evenodd;stroke:none;stroke-width:1px;stroke-linecap:butt;stroke-linejoin:miter;stroke-opacity:1"
       d="m 158.70711,172 c 0,0 -18.75391,39.10446 -18.70711,64 0.0468,24.89554 18,61 18,61 0,0 -24.16112,-11.59139 -51.17157,-30.29289 C 95.35407,258.76249 72,237 72,237 c 0,0 14.364859,-16.65955 35,-33 20.63514,-16.34045 51.70711,-32 51.70711,-32 z"
       id="path4177"
       inkscape:connector-curvature="0"
       sodipodi:nodetypes="czcsczc" />
  </g>
  <g
     inkscape:groupmode="layer"
     id="layer5"
     inkscape:label="right_side">
    <path
       style="fill:#ffffff;fill-opacity:1;fill-rule:evenodd;stroke:none;stroke-width:1px;stroke-linecap:butt;stroke-linejoin:miter;stroke-opacity:1"
       d="m 341.53258,173.31667 c 0,0 29.64854,14.67196 50.91168,30.40559 13.29683,9.83897 34.64824,31.8198 34.64824,31.8198 0,0 -20.3266,20.14921 -31.81981,28.99138 -24.84206,19.11196 -53.03301,32.52691 -53.03301,32.52691 0,0 17.82462,-33.60528 17.67767,-62.22539 -0.14695,-28.62011 -18.38477,-61.51829 -18.38477,-61.51829 z"
       id="path4180"
       inkscape:connector-curvature="0"
       sodipodi:nodetypes="cscsczc" />
  </g>
</svg>
